<svg width="16" height="16" viewBox="0 0 16 16" fill="none" xmlns="http://www.w3.org/2000/svg">
<path d="M2.40001 5.98881C1.93921 6.37601 1.50401 6.79041 1.09441 7.23201C0.90557 7.43117 0.800308 7.69516 0.800308 7.96961C0.800308 8.24406 0.90557 8.50806 1.09441 8.70721C2.26241 9.96801 4.91521 12.4 8.00001 12.4M4.52481 4.52481C4.52481 4.52481 6.59681 3.64481 8.00001 3.60001C11.0464 3.50401 13.1632 5.16801 14.9056 7.23201C15.0944 7.43117 15.1997 7.69516 15.1997 7.96961C15.1997 8.24406 15.0944 8.50806 14.9056 8.70721C14.4944 9.15041 14.1536 9.52321 13.6 9.96161C12.8 10.592 11.3504 11.2736 11.3504 11.2736M14.8 14.8L1.20001 1.20001" stroke="#1A1A1A" stroke-width="1.28" stroke-linecap="round" stroke-linejoin="round"/>
</svg>
